# xmcd
#
# Track frame offsets:
#	150
#	11837
#	23887
#	35081
#	47730
#	61227
#	72239
#	86683
#	98396
#	113333
#	126700
#	142036
#	156475
#	174271
#	187447
#	207461
#	222091
#	233957
#	247398
#
# Disc length: 3496 seconds
#
# Revision: 1
# Processed by: cddbd v1.5.2PL0 Copyright (c) Steve Scherf et al.
# Submitted via: audiograbber 1.83.01
#
DISCID=210da613
DTITLE=Shorty Rogers - Jump For Me (Modern Jazz Archive CD02)
DYEAR=2004
DGENRE=Jazz
TTITLE0=Beerle
TTITLE1=Hot Shoe
TTITLE2=Chino
TTITLE3=Lonely Way
TTITLE4=Scramble
TTITLE5=Windswept
TTITLE6=The Wild One
TTITLE7=Doggin' Around
TTITLE8=Topsy
TTITLE9=It's Sand, Man
TTITLE10=Basie Eyes
TTITLE11=Over and Out
TTITLE12=Jump For Me
TTITLE13=Down For Double
TTITLE14=Swingin' the Blues
TTITLE15=Walk, Don't Run
TTITLE16=Tickletoe
TTITLE17=H and J
TTITLE18=Taps Miller
EXTD=Reihe:  modern jazz archive  von  membran
EXTT0=
EXTT1=
EXTT2=
EXTT3=
EXTT4=
EXTT5=
EXTT6=
EXTT7=
EXTT8=
EXTT9=
EXTT10=
EXTT11=
EXTT12=
EXTT13=
EXTT14=
EXTT15=
EXTT16=
EXTT17=
EXTT18=
PLAYORDER=
